<?xml version="1.0" standalone="no"?>
<svg xmlns:xlink="http://www.w3.org/1999/xlink" id="wave" style="transform:rotate(180deg); transition: 0.3s" viewBox="0 0 1800 390" version="1.1" xmlns="http://www.w3.org/2000/svg"><defs><linearGradient id="sw-gradient-0" x1="0" x2="0" y1="1" y2="0"><stop stop-color="rgba(217, 175, 217, 1)" offset="0%"/><stop stop-color="rgba(151, 217, 225, 1)" offset="100%"/></linearGradient></defs><path style="transform:translate(0, 0px); opacity:1" fill="url(#sw-gradient-0)" d="M0,98L80,89.8C160,82,320,65,480,73.5C640,82,800,114,960,114.3C1120,114,1280,82,1440,65.3C1600,49,1760,49,1920,81.7C2080,114,2240,180,2400,187.8C2560,196,2720,147,2880,163.3C3040,180,3200,261,3360,294C3520,327,3680,310,3840,253.2C4000,196,4160,98,4320,73.5C4480,49,4640,98,4800,147C4960,196,5120,245,5280,236.8C5440,229,5600,163,5760,138.8C5920,114,6080,131,6240,155.2C6400,180,6560,212,6720,253.2C6880,294,7040,343,7200,334.8C7360,327,7520,261,7680,204.2C7840,147,8000,98,8160,106.2C8320,114,8480,180,8640,245C8800,310,8960,376,9120,334.8C9280,294,9440,147,9600,147C9760,147,9920,294,10080,343C10240,392,10400,343,10560,326.7C10720,310,10880,327,11040,285.8C11200,245,11360,147,11440,98L11520,49L11520,490L11440,490C11360,490,11200,490,11040,490C10880,490,10720,490,10560,490C10400,490,10240,490,10080,490C9920,490,9760,490,9600,490C9440,490,9280,490,9120,490C8960,490,8800,490,8640,490C8480,490,8320,490,8160,490C8000,490,7840,490,7680,490C7520,490,7360,490,7200,490C7040,490,6880,490,6720,490C6560,490,6400,490,6240,490C6080,490,5920,490,5760,490C5600,490,5440,490,5280,490C5120,490,4960,490,4800,490C4640,490,4480,490,4320,490C4160,490,4000,490,3840,490C3680,490,3520,490,3360,490C3200,490,3040,490,2880,490C2720,490,2560,490,2400,490C2240,490,2080,490,1920,490C1760,490,1600,490,1440,490C1280,490,1120,490,960,490C800,490,640,490,480,490C320,490,160,490,80,490L0,490Z"/></svg>